<svg width="39px" height="39px" viewBox="0 0 512 512" width="512" xmlns="http://www.w3.org/2000/svg">
  <g>
    <g>
      <path d="m495.335 65.236c-3.705-25.108-23.463-44.866-48.571-48.571-50.604-7.466-97.02-10.154-139.173-8.848-10.568.328-16.077 12.673-9.374 20.849 4.239 5.17 8.437 10.592 12.562 16.269 10.666 14.7 7.404 35.259-7.297 45.924-8.863 6.431-19.858 7.797-29.522 4.643-6.366-2.075-12.161-6.109-16.403-11.939-18.266-25.171-38.424-44.083-55.71-57.581-3.135-2.447-7.233-3.281-11.081-2.278-23.927 6.238-45.613 14.1-65.026 23.298-9.752 4.621-9.604 18.571.21 23.058 19.064 8.717 39.679 20.178 60.403 35.221 14.693 10.672 17.955 31.231 7.296 45.924-6.438 8.855-16.467 13.563-26.639 13.563-6.696 0-13.456-2.039-19.285-6.266-38.307-27.807-76.279-40.489-98.888-46.04-4.946-1.214-10.144.635-13.207 4.704-13.343 17.727-22.601 36.727-27.72 56.308-1.916 7.329 3.063 14.69 10.566 15.733 26.15 3.634 57.502 10.975 90.635 25.19 16.689 7.161 24.414 26.489 17.254 43.177-4.313 10.065-13.062 16.868-22.977 19.114-6.538 1.474-13.577.987-20.201-1.86-17.615-7.553-34.622-12.704-50.176-16.185-10.308-2.307-18.834 8.335-14.264 17.858 14.623 30.471 39.609 59.447 75.205 84.303 7.661 5.343 8.398 16.396 1.552 22.754-15.623 14.507-39.25 32.669-69.523 44.902-9.85 3.984-12.354 16.803-4.843 24.314l38.084 38.084c7.511 7.511 20.33 5.007 24.314-4.843 12.232-30.273 30.395-53.9 44.901-69.523 6.359-6.846 17.411-6.109 22.755 1.552 24.855 35.597 53.832 60.583 84.303 75.205 9.523 4.571 20.166-3.955 17.858-14.264-3.481-15.553-8.632-32.561-16.185-50.176-2.847-6.624-3.333-13.663-1.86-20.201 2.246-9.915 9.049-18.663 19.114-22.977 16.689-7.161 36.017.565 43.177 17.254 14.215 33.133 21.556 64.485 25.19 90.635 1.043 7.503 8.404 12.481 15.734 10.565 19.581-5.119 38.581-14.376 56.308-27.72 4.069-3.063 5.918-8.261 4.704-13.207-5.551-22.609-18.233-60.581-46.039-98.888-4.228-5.83-6.266-12.59-6.266-19.285 0-10.172 4.707-20.201 13.563-26.639 14.693-10.659 35.252-7.396 45.924 7.296 15.043 20.724 26.503 41.339 35.22 60.403 4.488 9.814 18.438 9.962 23.058.21 9.198-19.413 17.06-41.099 23.298-65.026 1.003-3.849.169-7.947-2.278-11.082-13.497-17.286-32.409-37.444-57.58-55.71-5.83-4.242-9.864-10.036-11.939-16.403-3.155-9.664-1.788-20.659 4.642-29.522 10.666-14.7 31.224-17.962 45.924-7.296 5.677 4.125 11.098 8.322 16.268 12.562 8.176 6.704 20.522 1.194 20.849-9.374 1.31-42.148-1.377-88.564-8.844-139.168z" fill="#60d9a7"/><g fill="#fff"><ellipse cx="206.692" cy="331.016" rx="42.543" ry="33.879" transform="matrix(.707 -.707 .707 .707 -173.526 243.108)"/><ellipse cx="369.75" cy="167.959" rx="42.543" ry="33.879" transform="matrix(.707 -.707 .707 .707 -10.468 310.645)"/></g><g fill="#00cd8c"><path d="m125.951 70.06c15.309 7 31.618 15.774 48.181 26.747 20.012-15.021 42.165-26.926 65.869-35.06-13.043-14.66-26.276-26.491-38.153-35.765-3.135-2.447-7.233-3.281-11.081-2.278-23.927 6.238-45.613 14.1-65.026 23.298-9.752 4.62-9.603 18.57.21 23.058z"/><path d="m33.013 258.643c-10.308-2.307-18.834 8.335-14.264 17.858 10.847 22.604 27.403 44.383 49.757 64.27-.631-7.802-.972-15.695-.972-23.675 0-16.042 1.306-31.754 3.801-47.021-13.381-5.03-26.289-8.739-38.322-11.432z"/><path d="m310.779 44.935c1.02 1.406 1.911 2.867 2.678 4.367.416-.002.828-.017 1.245-.017 87.091 0 146.277 14.027 184.85 48.622-1.186-10.692-2.58-21.574-4.217-32.67-3.705-25.108-23.463-44.866-48.571-48.571-50.604-7.466-97.02-10.154-139.173-8.848-10.568.328-16.077 12.673-9.374 20.849 4.24 5.169 8.437 10.591 12.562 16.268z"/><path d="m89.459 206.672c9.492-22.695 21.831-43.689 36.504-62.475-30.46-18.075-58.824-27.243-77.124-31.735-4.946-1.214-10.144.635-13.207 4.704-13.343 17.727-22.601 36.727-27.72 56.308-1.916 7.329 3.063 14.69 10.566 15.733 20.914 2.906 45.161 8.196 70.981 17.465z"/></g></g><g><path d="m502.757 64.141c-4.157-28.166-26.73-50.74-54.896-54.896-16.146-2.383-32.334-4.336-48.115-5.807-4.118-.384-7.779 2.648-8.164 6.772s2.647 7.779 6.772 8.164c15.515 1.445 31.435 3.367 47.317 5.71 21.675 3.199 39.047 20.571 42.246 42.246 7.152 48.471 10.103 94.849 8.771 137.846-.134 4.334-5.209 6.584-8.598 3.806-5.385-4.415-10.975-8.731-16.619-12.832-18.025-13.078-43.325-9.057-56.399 8.962-12.93 17.82-9.291 43.117 8.962 56.399 20.993 15.234 39.859 33.488 56.074 54.256.998 1.277 1.346 2.986.932 4.573-5.979 22.935-13.656 44.369-22.818 63.707-1.897 4.003-7.619 3.909-9.459-.118-9.948-21.756-22.051-42.512-35.974-61.692-13.082-18.009-38.38-22.028-56.402-8.955-17.871 12.992-22.151 38.199-8.956 56.396 7.206 9.927 13.846 20.515 19.734 31.468 1.968 3.66 6.52 5.01 10.157 3.055 3.648-1.961 5.016-6.509 3.055-10.157-18.072-33.615-25.642-34.242-25.644-48.057 0-8.115 3.915-15.806 10.467-20.568 11.325-8.215 27.229-5.688 35.451 5.631 13.337 18.375 24.934 38.264 34.469 59.116 7.157 15.652 29.327 15.771 36.657.303 9.563-20.184 17.563-42.505 23.777-66.345 1.585-6.079.23-12.654-3.624-17.589-17.078-21.873-36.958-41.106-59.079-57.159-11.498-8.367-13.752-24.274-5.639-35.455 8.216-11.325 24.119-13.851 35.446-5.634 5.404 3.927 10.761 8.063 15.921 12.294 13.024 10.676 32.583 1.796 33.102-14.941 1.36-43.881-1.643-91.152-8.924-140.499z"/><path d="m17.447 196.636c30.669 4.262 60.516 12.557 88.71 24.654 22.491 9.649 19.544 42.654-4.414 48.083-15.418 3.474-19.212-7.331-67.09-18.048-16.432-3.678-29.935 13.27-22.664 28.422 15.791 32.904 41.924 62.245 77.677 87.209 3.771 2.631 4.055 8.027.739 11.107-14.158 13.147-37.314 31.356-67.232 43.445-14.821 5.995-18.64 25.264-7.333 36.57l38.084 38.084c11.309 11.309 30.577 7.484 36.571-7.336 12.088-29.916 30.297-53.072 43.443-67.229 3.068-3.304 8.466-3.05 11.11.741 24.962 35.75 54.303 61.883 87.207 77.674 15.184 7.288 32.094-6.26 28.422-22.664-10.556-47.165-21.498-51.779-18.05-67.082 5.436-23.993 38.446-26.884 48.084-4.423 12.097 28.195 20.392 58.042 24.654 88.71 1.378 9.919 9.87 17.439 19.999 17.439 7.987 0 37.177-9.457 63.981-29.634 6.475-4.874 9.41-13.111 7.478-20.987-3.384-13.786-7.99-27.738-13.69-41.47-1.588-3.826-5.976-5.64-9.802-4.051-3.826 1.588-5.64 5.977-4.051 9.802 5.408 13.028 9.774 26.249 12.977 39.294.5 2.038-.258 4.167-1.931 5.427-16.773 12.625-34.839 21.527-53.694 26.456-2.958.774-5.98-1.258-6.408-4.342-4.447-31.995-13.102-63.136-25.727-92.561-15.318-35.702-67.849-31.159-76.5 7.031-4.862 21.572 7.341 25.856 18.043 73.664.945 4.22-3.425 7.721-7.294 5.864-30.547-14.66-57.934-39.132-81.396-72.734-8.086-11.593-24.795-12.706-34.402-2.365-14.004 15.082-33.416 39.784-46.358 71.814-1.976 4.884-8.344 6.066-12.058 2.352l-38.084-38.085c-3.762-3.761-2.466-10.109 2.349-12.057 32.033-12.943 56.735-32.354 71.818-46.36 10.373-9.637 9.189-26.342-2.363-34.399-33.605-23.464-58.078-50.851-72.737-81.398-1.856-3.866 1.641-8.239 5.864-7.294 16.805 3.762 33.243 9.063 48.852 15.757 20.587 8.848 44.307-.827 53.032-21.187 8.778-20.459-.728-44.248-21.189-53.027-29.424-12.624-60.565-21.279-92.56-25.726-3.077-.427-5.117-3.443-4.342-6.408 4.929-18.856 13.831-36.921 26.456-53.695 1.26-1.673 3.389-2.43 5.426-1.931 23.794 5.841 59.81 18.359 96.273 44.828 18.18 13.182 43.392 8.928 56.398-8.964 13.068-18.016 9.049-43.314-8.961-56.397-19.178-13.92-39.933-26.023-61.69-35.972-4.041-1.847-4.103-7.571-.118-9.459 19.335-9.162 40.77-16.838 63.707-22.818 1.584-.414 3.295-.065 4.573.933 20.768 16.214 39.021 35.081 54.261 56.081 5.05 6.94 12.016 12.009 20.14 14.656 37.1 12.111 68.126-30.525 45.213-62.105-4.098-5.639-8.414-11.229-12.829-16.615-2.778-3.388-.528-8.463 3.806-8.598 19.471-.603 39.931-.319 60.807.846 4.125.231 7.675-2.935 7.906-7.071s-2.935-7.675-7.071-7.906c-21.306-1.188-42.202-1.479-62.106-.862-16.763.521-25.597 20.106-14.941 33.101 4.23 5.161 8.367 10.518 12.291 15.917 14.379 19.819-5.068 46.655-28.425 39.032-5.104-1.663-9.482-4.852-12.655-9.213-16.059-22.129-35.292-42.009-57.165-59.086-4.936-3.854-11.512-5.209-17.589-3.625-23.843 6.215-46.165 14.215-66.346 23.777-15.5 7.344-15.322 29.512.303 36.657 20.854 9.536 40.743 21.133 59.114 34.468 19.678 14.294 9.774 45.919-14.935 45.919-5.372 0-10.518-1.673-14.879-4.835-38.427-27.894-76.409-41.093-101.506-47.254-7.877-1.933-16.113 1.003-20.986 7.478-13.806 18.342-23.558 38.166-28.984 58.922-3.053 11.675 4.85 23.399 16.787 25.059z"/><path d="m194.171 272.822c-2.929-2.929-7.678-2.929-10.606 0-2.929 2.929-2.929 7.678 0 10.606l12.298 12.297c2.928 2.929 7.677 2.929 10.606 0s2.929-7.678 0-10.606z"/><path d="m311.558 144.829c-2.929 2.929-2.929 7.678 0 10.606l12.297 12.298c2.928 2.928 7.677 2.928 10.606 0 2.929-2.929 2.929-7.678 0-10.607l-12.297-12.297c-2.928-2.929-7.677-2.929-10.606 0z"/><path d="m248.438 235.451c-4.123-.285-7.712 2.836-7.996 6.968s2.836 7.712 6.969 7.996c11.286.777 22.367-3.355 30.375-11.365 7.999-7.999 12.142-19.07 11.365-30.376-.284-4.133-3.867-7.252-7.996-6.968-4.132.284-7.252 3.863-6.969 7.996.479 6.979-2.075 13.81-7.007 18.742s-11.758 7.485-18.741 7.007z"/>
    </g>
  </g>
</svg>